<svg width="19" height="20" viewBox="0 0 19 20" fill="none" xmlns="http://www.w3.org/2000/svg">
<path d="M15.7427 4.27523C16.9235 3.51857 17.5139 3.14011 17.9051 3.40212C18.2963 3.66416 18.178 4.35876 17.9413 5.74785L16.3702 14.9667C16.2034 15.9459 16.1199 16.4356 15.7953 16.7624C15.4708 17.0892 14.9845 17.1733 14.012 17.3413L4.85686 18.923C3.47728 19.1614 2.78729 19.2807 2.52706 18.8868C2.26683 18.4929 2.64267 17.8982 3.39415 16.7092L4.53978 14.896L10.5648 13.0392C10.994 12.9069 11.2087 12.8407 11.3858 12.7214C11.5425 12.6157 11.6771 12.4801 11.7821 12.3223C11.9007 12.144 11.9666 11.9277 12.098 11.4954L13.9417 5.42904L15.7427 4.27523Z" fill="#5AD8CC"/>
<path d="M10.8066 3.12038C12.2959 2.1661 13.0407 1.68892 13.4441 2.01556C13.8474 2.34223 13.5445 3.1771 12.9385 4.84648L10.9961 10.1971C10.7694 10.8214 10.6562 11.1336 10.4305 11.3608C10.2049 11.588 9.89476 11.7021 9.27479 11.9303L3.96104 13.8862C2.30316 14.4964 1.47404 14.8014 1.14962 14.3953C0.825228 13.9891 1.29913 13.2391 2.24683 11.7395L3.28269 10.1C3.39082 10.031 3.50448 9.95857 3.62351 9.88229L6.45279 8.06933C6.61445 7.96575 6.69531 7.91393 6.76799 7.85254C6.83256 7.79801 6.89225 7.73791 6.9464 7.6729C7.00736 7.59971 7.05883 7.51829 7.1617 7.35551L8.96217 4.50661C9.03792 4.38675 9.10983 4.27231 9.17842 4.16342L10.8066 3.12038Z" fill="#5AD8CC"/>
<path d="M3.06327 4.38805C3.14907 4.25229 3.19197 4.1844 3.24802 4.12797C3.30407 4.07153 3.37148 4.02833 3.50631 3.94194L5.5486 2.63329C7.70193 1.25348 8.77859 0.563584 9.18816 0.975998C9.59774 1.38841 8.91259 2.47254 7.54229 4.6408L6.41494 6.42463C6.24334 6.69616 6.15754 6.83192 6.04545 6.9448C5.93335 7.05767 5.79852 7.14406 5.52886 7.31686L3.75732 8.45202C1.60399 9.83182 0.527332 10.5217 0.117759 10.1093C-0.291814 9.69689 0.393335 8.61276 1.76363 6.44451L3.06327 4.38805Z" fill="#5AD8CC"/>
</svg>
